HIERARCHY
ROOT Hips
{
   OFFSET 0.00000 0.00000 0.00000
   CHANNELS 6 Xposition Yposition Zposition Zrotation Xrotation Yrotation
   JOINT RightUpLeg
   {
      OFFSET -8.945800 -8.667070 0.101652
      CHANNELS 3 Zrotation Xrotation Yrotation
      JOINT RightLeg
      {
         OFFSET 0.000000 -44.422697 1.372700
         CHANNELS 3 Zrotation Xrotation Yrotation
         JOINT RightFoot
         {
            OFFSET 0.253549 -42.092399 -1.460590
            CHANNELS 3 Zrotation Xrotation Yrotation
            JOINT RightToes
            {
               OFFSET 0.040000 -4.415090 8.499099
               CHANNELS 3 Zrotation Xrotation Yrotation
               End Site
               {
                  OFFSET -0.080000 -0.137448 9.779790
               }
            }
         }
      }
   }
   JOINT Spine
   {
      OFFSET 0.000000 11.890501 0.000000
      CHANNELS 3 Zrotation Xrotation Yrotation
      JOINT Spine1
      {
         OFFSET 0.000000 25.657401 0.127663
         CHANNELS 3 Zrotation Xrotation Yrotation
         JOINT HEad
         {
            OFFSET 0.000000 8.734161 0.011341
            CHANNELS 3 Zrotation Xrotation Yrotation
            End Site
            {
               OFFSET -0.290000 12.774200 2.513950
            }
         }
         JOINT LeftShoulder1
         {
            OFFSET 8.990000 -0.362252 -0.220000
            CHANNELS 3 Zrotation Xrotation Yrotation
            JOINT LeftArm
            {
               OFFSET 10.282700 -0.003380 0.322123
               CHANNELS 3 Zrotation Xrotation Yrotation
               JOINT LeftForeArm
               {
                  OFFSET 32.766900 0.099144 -1.424340
                  CHANNELS 3 Zrotation Xrotation Yrotation
                  JOINT LeftHand
                  {
                     OFFSET 27.564301 0.085362 1.022160
                     CHANNELS 3 Zrotation Xrotation Yrotation
                     End Site
                     {
                        OFFSET 16.744301 -0.600000 1.502910
                     }
                  }
               }
            }
         }
         JOINT RightShoulder
         {
            OFFSET -8.990000 -0.362252 -0.220000
            CHANNELS 3 Zrotation Xrotation Yrotation
            JOINT RightArm
            {
               OFFSET -10.282700 -0.003380 0.322123
               CHANNELS 3 Zrotation Xrotation Yrotation
               JOINT RightForeArm
               {
                  OFFSET -32.897098 0.099144 -1.424340
                  CHANNELS 3 Zrotation Xrotation Yrotation
                  JOINT RightHand
                  {
                     OFFSET -27.492101 0.085362 1.022160
                     CHANNELS 3 Zrotation Xrotation Yrotation
                     End Site
                     {
                        OFFSET -16.631201 -0.600000 1.502910
                     }
                  }
               }
            }
         }
      }
   }
   JOINT LeftUpLeg
   {
      OFFSET 8.945800 -8.667070 0.101652
      CHANNELS 3 Zrotation Xrotation Yrotation
      JOINT LeftLeg
      {
         OFFSET 0.000000 -44.422697 1.372700
         CHANNELS 3 Zrotation Xrotation Yrotation
         JOINT LeftFoot
         {
            OFFSET -0.253549 -42.092399 -1.460590
            CHANNELS 3 Zrotation Xrotation Yrotation
            JOINT LeftToes
            {
               OFFSET -0.040000 -4.415090 8.499099
               CHANNELS 3 Zrotation Xrotation Yrotation
               End Site
               {
                  OFFSET 0.080000 -0.047448 9.779790
               }
            }
         }
      }
   }
}
MOTION
Frames: 10
Frame Time: 0.016667
-229.127709 101.975573 393.799776 33.520608 22.975539 67.575966 -21.536900 -2.749856 1.041337 8.067235 22.674744 -9.716731 -33.952262 24.659776 34.249113 0.962406 -6.077714 -30.343231 -47.633056 32.086251 69.904930 13.740315 21.706939 -50.156958 -7.585000 -21.255590 -8.809574 114.409145 -46.126781 148.938067 -76.169149 -24.111488 -25.192917 -36.927100 93.479991 -21.368406 -60.526479 -47.340642 -95.195522 105.852919 118.919604 -42.647052 217.292141 285.978354 316.418431 -24.177140 374.770185 63.244622 -25.625365 -31.123635 32.281909 16.729703 -10.752613 45.476400 -18.326294 39.040641 26.259499 -23.338429 32.901151 55.463568 18.685963 -17.164450 -22.120104
-229.643742 101.581849 393.967165 26.378595 19.398156 73.887060 -14.764180 -6.828215 -1.731963 5.919283 22.900465 -10.962476 -31.223383 23.622819 32.897207 1.379114 -5.171834 -31.202797 -41.373447 33.388891 68.708896 15.220429 20.095472 -52.885021 -8.224377 -25.122177 -7.786587 121.357121 -42.110254 153.279349 -74.552799 -20.941906 -20.070989 -34.801067 90.212073 -23.143020 -62.254927 -47.696335 -96.334347 111.105977 118.644976 -41.790810 219.502541 288.964458 318.546171 -23.695970 375.701331 63.082855 -27.698338 -32.794153 32.109860 20.999321 -15.797555 30.753548 -23.202093 33.035815 34.663797 -26.804097 30.818036 52.905064 19.138999 -13.952921 -21.873005
-229.955098 101.032961 393.965753 21.077615 14.811726 79.753209 -9.407123 -9.464999 -4.352980 4.735508 23.612719 -12.365941 -26.611698 22.903936 32.053074 1.721390 -4.063945 -31.446229 -36.289160 34.337195 68.524877 15.725658 19.794489 -54.411944 -11.457788 -28.137796 -6.131664 131.197019 -37.331738 156.688214 -72.129250 -15.999290 -13.612964 -31.727755 86.743676 -25.566465 -63.333380 -49.227492 -95.264398 115.838956 117.085507 -41.973592 220.037071 291.482995 320.487420 -23.035129 376.210480 61.243472 -27.232301 -34.339462 30.030856 24.005945 -20.082156 15.558408 -25.620586 26.783805 42.010427 -29.567592 27.537540 52.279890 19.209446 -11.052420 -20.782976
-230.111500 100.255116 393.865579 18.019239 11.199654 83.563888 -6.126799 -11.554150 -6.005353 3.754456 25.531085 -14.040073 -20.862733 22.670998 31.656639 2.051072 -2.652855 -31.096960 -29.105144 35.515642 67.311425 17.278374 19.825691 -56.128326 -12.713110 -30.816765 -4.767986 138.693220 -32.038239 161.703950 -69.786338 -12.385499 -6.051396 -27.577971 83.745830 -28.315762 -64.523131 -50.342196 -94.476297 121.196051 114.877553 -42.862634 219.605731 293.186171 322.702697 -22.217415 376.383038 60.718620 -27.941681 -34.729080 30.135686 25.689316 -22.126516 0.335288 -27.849381 20.064130 49.787769 -31.398947 23.527357 52.559508 19.104611 -8.595117 -19.540051
-230.036274 99.251631 393.676981 16.161906 8.104010 86.501696 -4.337623 -12.874663 -4.909477 2.828126 28.654396 -14.639942 -13.819744 22.312882 33.010410 1.955168 -1.782778 -29.064282 -19.837110 36.387409 65.938100 19.010839 20.787840 -57.432540 -11.909558 -33.936567 -3.795356 145.934232 -25.921997 166.675385 -67.197553 -7.646109 3.386253 -23.592409 81.753601 -31.548435 -65.900780 -50.432860 -94.231605 127.223639 111.365176 -44.269130 217.960462 294.994750 324.220856 -20.933799 375.418725 59.329059 -27.464442 -35.730728 31.683287 26.175109 -23.815186 -15.519460 -28.508223 14.483696 57.490003 -32.388351 18.835604 53.569300 18.808799 -6.998549 -18.319158
-229.773594 98.023327 393.408655 14.951067 5.237557 89.683000 -2.444916 -13.965774 -5.177836 3.273049 30.058003 -16.605723 -9.590129 22.141839 32.338664 1.787578 -1.402106 -27.612744 -12.973552 36.645338 64.031364 20.825571 22.642041 -58.809670 -10.178133 -37.529246 -3.034699 152.793955 -19.774108 173.533824 -63.002887 -4.048191 8.853357 -19.593958 80.640000 -35.289743 -67.810473 -49.696388 -94.371460 132.939223 108.657887 -46.252573 216.692382 294.915793 326.311277 -19.616800 377.109607 61.651630 -26.230249 -34.202220 36.226849 27.664226 -23.680616 -32.037176 -27.257207 7.710548 63.783790 -42.556078 11.604168 55.069558 18.125261 -8.125448 -17.998095
-229.246479 96.671237 393.091272 13.566412 3.559658 92.935406 -1.656634 -15.086978 -5.622852 4.594225 31.271526 -19.192734 -6.873737 20.831754 30.781026 1.235228 -2.370070 -26.108526 -6.926869 36.100422 62.805905 21.841243 22.523286 -58.518691 -6.539708 -40.398814 -2.734770 159.681025 -12.853453 179.606176 -57.186483 0.674850 15.746723 -16.657462 81.628205 -39.030891 -70.473182 -47.703520 -93.861395 138.899970 105.763000 -48.822923 212.611986 294.521281 327.452219 -17.402234 377.379235 59.577589 -24.384233 -32.403059 36.747941 27.743472 -26.101261 -47.502897 -27.323340 2.313043 69.644406 -36.967579 8.421340 56.140938 17.992286 -7.376609 -18.632619
-228.482548 95.236348 392.668985 13.248042 2.903725 95.060804 -1.634436 -15.378596 -6.857233 5.842818 31.652893 -22.787521 -5.807664 20.172540 27.773229 0.542531 -4.254302 -25.168185 -2.130217 35.597150 61.742444 22.079170 22.398958 -58.054415 -5.049338 -41.892081 -2.074371 166.414513 -6.248596 183.803423 -50.171404 4.964131 22.647867 -14.240559 82.891661 -42.628631 -73.213631 -46.155065 -93.795484 143.411952 101.207195 -53.220366 209.856797 295.227359 328.110021 -15.525406 376.088493 57.843486 -23.256623 -30.450684 37.542343 29.077628 -27.369427 -60.405107 -26.474573 -1.327910 75.553264 -46.446092 5.196786 58.953145 17.817745 -6.798166 -18.889918
-227.539078 93.960064 392.098345 13.163471 1.037058 96.799948 -0.780354 -15.619943 -6.917925 7.668127 32.546367 -25.350134 -4.539891 20.726771 25.410761 -0.212086 -6.392642 -23.994449 2.846987 35.504266 60.615777 21.630775 21.532716 -56.788201 -4.815864 -42.159507 -1.234222 172.843264 -0.157913 186.242183 -41.776791 8.245445 28.754652 -11.588247 84.118991 -45.414146 -75.811241 -45.187893 -93.562882 146.136241 95.964308 -59.118224 208.251976 297.253138 329.059554 -14.025147 373.380105 56.392326 -22.086965 -28.906354 37.887565 29.686451 -29.005628 -72.749827 -25.720367 -4.510816 80.978135 -41.303062 3.940145 60.281023 17.982729 -5.205484 -19.543630
-226.429841 92.736224 391.392282 12.639904 -0.214819 98.401033 -0.940965 -15.998123 -6.186692 9.893314 33.892170 -27.606679 -2.955697 21.104345 23.397069 -1.139740 -9.385349 -22.918982 6.032412 33.490613 57.961340 23.539933 23.347808 -56.213570 -5.432423 -40.820499 -0.282012 179.037071 5.350307 188.115554 -32.735027 9.543172 31.752996 -8.610010 84.759192 -47.963388 -78.126880 -44.805778 -93.219576 148.339237 95.219251 -63.761032 208.762164 299.361754 330.908349 -12.323049 371.120869 53.980320 -21.296678 -26.967498 37.020858 30.821147 -30.130280 -83.424129 -23.677028 -7.658257 87.534270 -44.054259 1.419234 61.491018 18.098926 -4.092989 -19.808397
